<?xml version="1.0" encoding="UTF-8" standalone="no"?>
<!-- Generator: Adobe Illustrator 16.0.0, SVG Export Plug-In . SVG Version: 6.00 Build 0)  -->
<!DOCTYPE svg  PUBLIC '-//W3C//DTD SVG 1.1//EN'  'http://www.w3.org/Graphics/SVG/1.1/DTD/svg11.dtd'>
<svg id="Layer_1" xmlns="http://www.w3.org/2000/svg" xml:space="preserve" height="792px" viewBox="0 0 612 792" width="612px" version="1.1" y="0px" x="0px" xmlns:xlink="http://www.w3.org/1999/xlink" enable-background="new 0 0 612 792">
<g fill="#E5E5E5">
	<path d="m386.51 447.49h-161.02c-30.894 0-56.171 25.277-56.171 56.172v99.233c0 30.895 25.277 56.172 56.171 56.172h161.02c30.895 0 56.173-25.277 56.173-56.172v-99.233c0-30.89-25.27-56.17-56.17-56.17zm18.72 156.34c0 10.298-8.425 18.724-18.724 18.724h-161.02c-10.299 0-18.725-8.426-18.725-18.724v-100.17c0-10.3 8.426-18.725 18.725-18.725h161.02c10.299 0 18.724 8.426 18.724 18.725v100.17h0.01z"/>
	<path d="m232.04 312.68h148.85c10.298 0 18.724-8.425 18.724-18.723 0-10.299-8.426-18.725-18.724-18.725h-148.85c-10.298 0-18.724 8.426-18.724 18.725 0 10.29 8.42 18.72 18.72 18.72z"/>
	<path d="m588.73 384.76h-71.149v-33.703c0-73.958-38.384-139.49-95.491-176.94-0.94-63.66-52.43-115.15-116.09-115.15-63.661 0-115.15 51.489-116.09 115.15-58.044 37.447-95.491 102.98-95.491 176.94v33.703h-71.15c-10.298 0-18.725 8.426-18.725 18.725v227.49c0 10.3 8.427 18.725 18.725 18.725h71.15v64.596c0 10.298 8.425 18.725 18.725 18.725h385.71c10.297 0 18.724-8.427 18.724-18.725v-64.596h71.149c10.299 0 18.726-8.425 18.726-18.725v-227.49c0-10.3-8.43-18.73-18.72-18.73zm-282.73-288.34c35.575 0 65.532 24.342 74.895 56.171-23.405-8.425-48.683-14.042-74.895-14.042-26.214 0-51.489 4.681-74.894 14.042 9.36-31.83 39.32-56.168 74.89-56.168zm-264 514.9v-189.11h52.426v190.04l-52.426-0.93zm438.13 84.26h-348.26v-344.52c0-96.426 77.704-174.13 174.13-174.13 96.427 0 174.13 77.704 174.13 174.13v344.52zm89.87-84.26h-52.426v-189.11h52.426v189.11z"/>
</g>
</svg>
