<?xml version="1.0" encoding="UTF-8" standalone="no"?>
<!-- Generator: Adobe Illustrator 16.0.0, SVG Export Plug-In . SVG Version: 6.00 Build 0)  -->
<!DOCTYPE svg  PUBLIC '-//W3C//DTD SVG 1.1//EN'  'http://www.w3.org/Graphics/SVG/1.1/DTD/svg11.dtd'>
<svg id="Layer_1" xmlns="http://www.w3.org/2000/svg" xml:space="preserve" height="280px" viewBox="0 0 239.5 280" width="239.5px" version="1.1" y="0px" x="0px" xmlns:xlink="http://www.w3.org/1999/xlink" enable-background="new 0 0 239.5 280">
<g fill="#DEDEDE">
	<path d="m228.45 111.4h-19.472c-5.188-17.368-14.738-32.866-27.379-45.227l-13.629-54.512c-0.839-3.356-3.851-5.706-7.307-5.706h-105.44c-3.455 0-6.468 2.35-7.306 5.706l-13.626 54.512c-19.594 19.154-31.788 45.847-31.788 75.347s12.194 56.195 31.788 75.354l13.629 54.516c0.838 3.353 3.851 5.704 7.306 5.704h105.44c3.456 0 6.468-2.352 7.307-5.707l13.629-54.516c12.641-12.357 22.188-27.858 27.379-45.226h19.472c4.16 0 7.531-3.371 7.531-7.532v-45.19c0-4.14-3.37-7.51-7.53-7.51zm-167.35-90.385h93.683l7.553 30.211c-15.892-9.607-34.507-15.148-54.395-15.148s-38.497 5.541-54.39 15.148l7.554-30.211zm93.686 241.02h-93.686l-7.554-30.21c15.893 9.607 34.507 15.148 54.395 15.148s38.503-5.541 54.394-15.148l-7.54 30.21zm-46.85-30.13c-49.835 0-90.383-40.546-90.383-90.382 0-49.837 40.546-90.382 90.383-90.382 49.836 0 90.381 40.545 90.381 90.382 0.01 49.84-40.54 90.38-90.38 90.38zm112.98-75.31h-8.625c0.708-4.922 1.095-9.947 1.095-15.063s-0.388-10.141-1.095-15.063h8.625v30.12z"/>
	<path d="m145.6 133.99h-30.126v-60.252c0-4.16-3.371-7.531-7.532-7.531s-7.532 3.371-7.532 7.531v67.787c0 4.16 3.371 7.531 7.532 7.531h37.659c4.16 0 7.531-3.371 7.531-7.531 0.01-4.16-3.37-7.53-7.53-7.53z"/>
</g>
</svg>
