<?xml version="1.0" encoding="UTF-8" standalone="no"?>
<!-- Generator: Adobe Illustrator 16.0.0, SVG Export Plug-In . SVG Version: 6.00 Build 0)  -->
<!DOCTYPE svg  PUBLIC '-//W3C//DTD SVG 1.1//EN'  'http://www.w3.org/Graphics/SVG/1.1/DTD/svg11.dtd'>
<svg id="Layer_1" xmlns="http://www.w3.org/2000/svg" xml:space="preserve" height="792px" viewBox="0 0 612 792" width="612px" version="1.1" y="0px" x="0px" xmlns:xlink="http://www.w3.org/1999/xlink" enable-background="new 0 0 612 792">
<path d="m592.11 128.7h-568.78c-9.368 0-16.729 7.361-16.729 16.729v368.04c0 9.369 7.361 16.73 16.729 16.73h83.645v117.1c0 7.361 4.685 13.384 11.376 16.061 6.691 2.008 14.721 0 18.736-6.023l95.69-127.14h360.01c9.368 0 16.729-7.361 16.729-16.73v-368.04c-0.69-9.37-8.05-16.73-17.42-16.73zm-16.73 368.04h-351.3c-5.354 0-10.038 2.677-13.383 6.691l-70.261 93.682v-83.645c0-9.367-7.361-16.729-16.729-16.729h-83.652v-334.58h535.33v334.59z" fill="#E5E5E5"/>
<path d="m123.7 262.53h200.75c9.368 0 16.729-7.361 16.729-16.729s-7.36-16.729-16.729-16.729h-200.75c-9.369 0-16.729 7.361-16.729 16.729s7.36 16.73 16.73 16.73z" fill="#E5E5E5"/>
<path d="m491.74 312.72h-167.29c-9.368 0-16.729 7.36-16.729 16.729s7.361 16.729 16.729 16.729h167.29c9.369 0 16.729-7.36 16.729-16.729 0-9.37-7.36-16.73-16.73-16.73z" fill="#E5E5E5"/>
<path d="m123.7 346.18h133.83c9.368 0 16.729-7.36 16.729-16.729 0-9.368-7.36-16.729-16.729-16.729h-133.83c-9.369 0-16.729 7.36-16.729 16.729 0 9.37 7.36 16.73 16.73 16.73z" fill="#E5E5E5"/>
<path d="m357.91 396.36h-100.37c-9.368 0-16.729 7.361-16.729 16.729 0 9.369 7.362 16.73 16.729 16.73h100.37c9.368 0 16.729-7.361 16.729-16.73 0-9.37-7.36-16.73-16.73-16.73z" fill="#E5E5E5"/>
<path d="m123.7 429.82h66.916c9.368 0 16.729-7.361 16.729-16.73 0-9.367-7.361-16.729-16.729-16.729h-66.916c-9.369 0-16.729 7.361-16.729 16.729 0 9.37 7.36 16.73 16.73 16.73z" fill="#E5E5E5"/>
<path d="m391.37 262.53h100.37c9.369 0 16.729-7.361 16.729-16.729s-7.36-16.729-16.729-16.729h-100.37c-9.368 0-16.729 7.361-16.729 16.729s7.36 16.73 16.73 16.73z" fill="#E5E5E5"/>
</svg>
